<?xml version="1.0" standalone="no"?>
<!DOCTYPE svg PUBLIC "-//W3C//DTD SVG 1.1//EN" "http://www.w3.org/Graphics/SVG/1.1/DTD/svg11.dtd" >
<svg xmlns="http://www.w3.org/2000/svg" xmlns:xlink="http://www.w3.org/1999/xlink" version="1.1">
<metadata></metadata>
<defs>
<font id="avarabold" horiz-adv-x="640" >
<font-face units-per-em="1000" ascent="800" descent="-200" />
<missing-glyph horiz-adv-x="320" />
<glyph unicode="ff" horiz-adv-x="720" d="M560 720v-200h120v-40h-40l-80 -40v-360l80 -80h-280l80 80v360l-40 40h-80l-80 -40v-360l80 -80h-280l80 80v360l-40 40v40h40v160l40 80l40 40l80 40l160 -40v-81l40 41l40 40l80 40l160 -40v-120l-40 -40l-80 40l40 80l-80 40zM240 720v-200h200v160l-40 -40l-80 40 l40 80l-80 40z" />
<glyph unicode="fi" horiz-adv-x="680" d="M240 720v-200h320v-440l80 -80h-280l80 80v360l-80 40h-40l-80 -40v-360l80 -80h-280l80 80v360l-40 40v40h40v160l40 80l40 40l120 40l200 -40l40 -80l-40 -80l-120 40l40 80l-120 40z" />
<glyph unicode="fl" horiz-adv-x="680" d="M440 80v600l-40 -40l-80 40l40 80l-80 40l-40 -80v-200h120v-40h-40l-80 -40v-360l80 -80h-280l80 80v360l-40 40v40h40v160l40 80l40 40l80 40l160 -40l120 40v-760l80 -80h-280z" />
<glyph unicode="ffi" horiz-adv-x="1000" d="M560 720v-200h320v-440l80 -80h-280l80 80v360l-80 40h-40l-80 -40v-360l80 -80h-280l80 80v360l-40 40h-80l-80 -40v-360l80 -80h-280l80 80v360l-40 40v40h40v160l40 80l40 40l80 40l160 -40v-80l80 80l120 40l200 -40l40 -80l-40 -80l-120 40l40 80l-120 40zM440 520 v160l-40 -40l-80 40l40 80l-80 40l-40 -80v-200h200z" />
<glyph unicode="ffl" horiz-adv-x="1000" d="M600 840l160 -40l120 40v-760l80 -80h-280l80 80v600l-40 -40l-80 40l40 80l-80 40l-40 -80v-200h120v-40h-40l-80 -40v-360l80 -80h-280l80 80v360l-40 40h-80l-80 -40v-360l80 -80h-280l80 80v360l-40 40v40h40v160l40 80l40 40l80 40l160 -40v-81l40 41l40 40z M240 720v-200h200v160l-40 -40l-80 40l40 80l-80 40z" />
<glyph unicode=" "  horiz-adv-x="320" />
<glyph unicode="&#x09;" horiz-adv-x="320" />
<glyph unicode="&#xa0;" horiz-adv-x="320" />
<glyph unicode="!" horiz-adv-x="240" d="M40 760l40 40h80l40 -40v-120l-80 -400h-40l-40 400v120zM160 0h-40l-80 40v40l40 80h40l80 -40v-40z" />
<glyph unicode="&#x22;" horiz-adv-x="360" d="M120 560h-40l-40 160v40l40 40h40l40 -40v-40zM280 560h-40l-40 160v40l40 40h40l40 -40v-40z" />
<glyph unicode="#" horiz-adv-x="680" d="M440 560l40 160h80l-40 -160h80v-80h-100l-40 -160h100v-80h-120l-40 -160h-80l40 160h-120l-40 -160h-80l40 160h-80v80h100l40 160h-100v80h120l40 160h80l-40 -160h120zM300 480l-40 -160h120l40 160h-120z" />
<glyph unicode="$" horiz-adv-x="600" d="M280 -80v960h40v-960h-40zM480 840l40 -240h-40l-120 160h-120l-40 -40l-40 -80l80 -80l280 -240l40 -120l-40 -160l-160 -80l-200 40l-80 -40l-40 270h40l120 -190h120l80 40l40 40v80l-80 80l-280 240l-40 120l40 120l120 80l200 -40z" />
<glyph unicode="%" horiz-adv-x="960" d="M160 799l120 41h80l40 -41l79 -120l-79 -199l-120 -40h-80l-40 40l-80 119zM680 0l-120 41l-80 199l80 120l40 40h80l120 -40l79 -200l-79 -119l-40 -41h-80zM200 0l440 800h80l-440 -800h-80zM320 759l-40 40l-40 -40l-40 -159l40 -80l40 -40l40 40l40 160zM680 41 l40 40l40 79l-40 160l-40 40l-40 -40l-40 -80l40 -159zM880 160h-1l1 1v-1zM480 679h-1l1 1v-1z" />
<glyph unicode="&#x26;" horiz-adv-x="680" d="M480 400h200l-80 -80l-80 -120l160 -200l-40 -40l-160 160l-80 -80l-80 -40h-160l-120 80l-40 80v80l80 120l120 80l-80 80l-40 80v80l80 80l80 40h80l120 -40l40 -80v-80l-40 -80l-120 -80l160 -200l40 80zM440 160l-200 240l-80 -80l-40 -120l40 -120l120 -40l80 40z M360 720l-80 40l-80 -40l-40 -80l40 -80l80 -80l80 80l40 80z" />
<glyph unicode="'" horiz-adv-x="200" d="M120 560h-40l-40 160v40l40 40h40l40 -40v-40z" />
<glyph unicode="(" horiz-adv-x="440" d="M440 -120l-40 -40l-80 40l-120 120l-80 120l-40 200l40 200l80 120l120 120l80 40l40 -40l-80 -40l-80 -120l-40 -120v-320l40 -120l80 -120z" />
<glyph unicode=")" horiz-adv-x="440" d="M40 -160l-40 40l80 40l80 120l40 120v320l-40 120l-80 120l-80 40l40 40l80 -40l120 -120l80 -120l40 -200l-40 -200l-80 -120l-120 -120z" />
<glyph unicode="*" horiz-adv-x="440" d="M40 720v40l40 40l120 -40l-40 120l40 40h40l40 -40l-40 -120l120 40l40 -40v-40l-40 -40l-120 40l40 -120l-40 -40h-40l-40 40l40 120l-120 -40z" />
<glyph unicode="+" horiz-adv-x="600" d="M0 280v80h240v240h80v-240h240v-80h-240v-240h-80v240h-240z" />
<glyph unicode="," horiz-adv-x="240" d="M200 40l-80 -160h-120v40h80l40 80l-80 40v40l40 80h40l80 -40v-80z" />
<glyph unicode="-" horiz-adv-x="320" d="M40 240v80h240v-80h-240z" />
<glyph unicode="." horiz-adv-x="200" d="M120 0h-40l-80 40v40l40 80h40l80 -40v-40z" />
<glyph unicode="/" horiz-adv-x="320" d="M1 -80l200 840h80l-200 -840h-80z" />
<glyph unicode="0" horiz-adv-x="720" d="M520 240v320l-80 160l-80 40l-80 -40l-80 -160v-320l80 -160l80 -40l80 40zM640 200l-80 -120l-160 -80h-80l-160 80l-80 120l-40 200l40 200l80 120l160 80h80l160 -80l80 -120l40 -200z" />
<glyph unicode="1" horiz-adv-x="360" d="M80 680l80 80l80 40v-720l80 -80h-280l80 80v520h-120v40z" />
<glyph unicode="2" d="M280 720l-80 -80v-160h-40l-80 120l40 120l160 80h120l120 -40l80 -120v-80l-40 -120l-80 -80l-320 -280l280 -40l120 200h40l-40 -280l-80 40h-440v40l120 120l280 320l40 80v40l-40 80l-80 40h-80z" />
<glyph unicode="3" d="M520 520l-80 -80l80 -40l80 -80v-120l-80 -120l-160 -80h-80l-160 40l-80 80v80l80 80h40v-120l40 -80l120 -40l80 40l80 160v80l-40 40l-120 40l-120 -40l40 120l80 -40l80 40l40 120l-40 80l-80 40h-80l-80 -40l-40 -120h-40v80l40 80l40 40l80 40h120l120 -40l80 -120 z" />
<glyph unicode="4" horiz-adv-x="600" d="M120 280l240 -40v480zM0 280l320 480l160 40v-560h80v-40h-80v-120l80 -80h-280l80 80v120h-320z" />
<glyph unicode="5" d="M560 800l-40 -120h-320l-40 -200l80 40h160l160 -80l40 -120v-120l-80 -120l-160 -80h-80l-160 40l-80 80v80l80 80h40v-120l40 -80l120 -40l80 40l80 160v120l-120 120h-120l-120 -80h-40l80 400h400z" />
<glyph unicode="6" d="M200 600l-40 -200l80 80l120 40l160 -80l80 -160l-80 -200l-160 -80h-120l-120 80l-80 120v240l80 200l120 120l200 40l120 -40v-80l-80 -120h-40v200l-160 -40zM280 440l-80 -80l-40 -80v-40l40 -80l80 -80h80l80 80l40 80v40l-40 80l-80 80h-80z" />
<glyph unicode="7" horiz-adv-x="560" d="M360 440l-40 -120l-40 -320h-160l80 280l80 160l120 200l80 120h-240l-80 -40v-160h-40l-80 120v120h520v-40l-80 -120z" />
<glyph unicode="8" d="M120 440l120 40l-120 40l-40 80v80l80 80l120 40h80l120 -40l80 -80v-80l-40 -80l-120 -80l120 -40l80 -160l-80 -160l-160 -80h-80l-160 80l-80 160zM360 440l-160 -80l-40 -80v-80l80 -80l80 -40l80 40l80 80v80l-40 80zM400 720l-80 40l-80 -40l-40 -80v-80l80 -80 l120 40l40 40v80z" />
<glyph unicode="9" d="M440 200l40 200l-80 -80l-120 -40l-160 80l-80 160l80 200l160 80h120l120 -80l80 -120v-240l-80 -200l-120 -120l-200 -40l-120 40v80l80 120h40v-200l160 40zM360 360l80 80l40 80v40l-40 80l-80 80h-80l-80 -80l-40 -80v-40l40 -80l80 -80h80z" />
<glyph unicode=":" horiz-adv-x="200" d="M120 360h-40l-80 40v40l40 80h40l80 -40v-40zM120 0h-40l-80 40v40l40 80h40l80 -40v-40z" />
<glyph unicode=";" horiz-adv-x="240" d="M160 360h-40l-80 40v40l40 80h40l80 -40v-40zM200 40l-80 -160h-120v40h80l40 80l-80 40v40l40 80h40l80 -40v-80z" />
<glyph unicode="&#x3c;" horiz-adv-x="480" d="M400 40l-320 240v79l320 241l40 -80l-320 -200l320 -200z" />
<glyph unicode="=" horiz-adv-x="560" d="M520 440v-80h-480v80h480zM520 280v-80h-480v80h480z" />
<glyph unicode="&#x3e;" horiz-adv-x="480" d="M400 280l-320 -240l-40 80l320 200l-320 200l40 80l320 -241v-79z" />
<glyph unicode="?" horiz-adv-x="520" d="M120 520h-40l-80 80v40l80 120l120 40h80l120 -40l80 -120v-80l-80 -120l-160 -80l-40 -40l40 -80h-40l-80 80v40l200 120l40 80v80l-40 80l-80 40l-80 -40l-40 -80v-120zM280 0h-40l-80 40v40l40 80h40l80 -40v-40z" />
<glyph unicode="@" horiz-adv-x="840" d="M480 160l40 280h-120l-40 -40l-40 -160l40 -120l80 -40zM40 80l-40 200l40 200l80 120l160 80h280l160 -80l80 -120l40 -200l-80 -160l-80 -80l-80 -40l-80 120l-40 -80l-160 -40l-120 160v160l40 120l120 80l160 -40l40 40h80l-40 -320l40 -120l80 120v240l-80 120 l-160 80h-120l-160 -80l-80 -120v-320l80 -120l120 -80l120 -40l-40 -40l-160 40l-120 80z" />
<glyph unicode="A" horiz-adv-x="760" d="M160 80l80 -80h-240l80 80l240 640v40l80 80l280 -760l80 -80h-240l40 80l-57 160h-286zM488 280l-128 360l-129 -360h257z" />
<glyph unicode="B" horiz-adv-x="760" d="M120 720l-80 80h360l200 -40l80 -160l-80 -120l-80 -40l120 -40l80 -160l-80 -160l-160 -80h-440l80 80v640zM400 760h-120l-40 -40v-280h80l160 40l40 120l-40 120zM320 400h-80v-320l40 -40h120l120 80l40 120l-80 120z" />
<glyph unicode="C" horiz-adv-x="760" d="M200 560v-320l80 -120l160 -80l120 40l80 80l40 80l40 -40l-80 -120l-120 -80h-200l-160 80l-80 120l-40 200l40 200l80 120l160 80h200l160 -80l40 -80l-80 -80h-80v120l-80 80h-80l-120 -80z" />
<glyph unicode="D" horiz-adv-x="800" d="M120 720l-80 80h360l200 -80l120 -120l40 -200l-40 -200l-80 -120l-160 -80h-440l80 80v640zM600 200v360l-40 80l-80 80l-80 40h-120l-40 -40v-640l40 -40h160l80 40z" />
<glyph unicode="E" horiz-adv-x="720" d="M640 240h40l-40 -280l-80 40h-520l80 80v640l-80 80h400l160 40l40 -240h-40l-120 160h-200l-40 -40v-240l40 -40h160l80 80v-200l-80 80h-160l-40 -40v-280l40 -40h240z" />
<glyph unicode="F" horiz-adv-x="680" d="M320 0h-280l80 80v640l-80 80h400l160 40l40 -240h-40l-120 160h-200l-40 -40v-240l40 -40h160l80 80v-200l-80 80h-160l-40 -40v-280z" />
<glyph unicode="G" horiz-adv-x="880" d="M240 560v-320l80 -120l160 -80l120 40l40 40v160l-80 80h280l-80 -80v-200l-80 -40l-120 -40h-200l-160 80l-80 120l-40 200l40 200l80 120l160 80h200l160 -80l40 -80l-80 -80h-80v120l-80 80h-80l-120 -80z" />
<glyph unicode="H" horiz-adv-x="920" d="M40 800h280l-80 -80v-240l40 -40h360l40 40v240l-80 80h280l-80 -80v-640l80 -80h-280l80 80v280l-40 40h-360l-40 -40v-280l80 -80h-280l80 80v640z" />
<glyph unicode="I" horiz-adv-x="360" d="M240 720v-640l80 -80h-280l80 80v640l-80 80h280z" />
<glyph unicode="J" horiz-adv-x="440" d="M80 -120l-40 40l120 120l40 80v600l-80 80h280l-80 -80v-600l-80 -120z" />
<glyph unicode="K" horiz-adv-x="700" d="M480 360l240 -360l-40 -40l-160 120l-160 240l-80 40l-40 -40v-240l80 -80h-280l80 80v640l-80 80h280l-80 -80v-320l280 320l-80 80h240l-80 -80l-280 -320z" />
<glyph unicode="L" horiz-adv-x="680" d="M600 -40l-80 40h-480l80 80v640l-80 80h280l-80 -80v-640l40 -40h200l120 200h40z" />
<glyph unicode="M" horiz-adv-x="1000" d="M280 800l240 -600l240 600h200l-80 -80v-640l80 -80h-280l80 80v520l-240 -600l-40 -40l-280 680v-560l80 -80h-240l80 80v640l-80 80h240z" />
<glyph unicode="N" horiz-adv-x="840" d="M720 720v-680l-80 -80l-440 720v-600l80 -80h-240l80 80v640l-80 80h240l360 -600v520l-80 80h240z" />
<glyph unicode="O" horiz-adv-x="880" d="M800 200l-80 -120l-160 -80h-240l-160 80l-80 120l-40 200l40 200l80 120l160 80h240l160 -80l80 -120l40 -200zM680 240v320l-80 120l-120 80h-80l-120 -80l-80 -120v-320l80 -120l120 -80h80l120 80z" />
<glyph unicode="P" horiz-adv-x="694" d="M400 320l-160 40v-280l80 -80h-280l80 80v640l-80 80h360l200 -40l80 -160l-80 -200zM400 760h-120l-40 -40v-320h120l120 40l40 160l-40 120z" />
<glyph unicode="Q" horiz-adv-x="880" d="M720 80l-160 -80l120 -80l120 -40h120v-40l-160 -40l-160 40l-80 80l-40 80h-160l-160 80l-80 120l-40 200l40 200l80 120l160 80h240l160 -80l80 -120l40 -200l-40 -200zM400 40h80l120 80l80 120v320l-80 120l-120 80h-80l-120 -80l-80 -120v-320l80 -120z" />
<glyph unicode="R" horiz-adv-x="730" d="M120 720l-80 80h360l200 -40l80 -160l-80 -160l-240 -40l120 -40l240 -360l-40 -40l-160 120l-160 240l-40 40l-80 40v-320l80 -80h-280l80 80v640zM400 760h-120l-40 -40v-280h160l80 40l40 120l-40 120z" />
<glyph unicode="S" horiz-adv-x="600" d="M480 840l40 -240h-40l-120 160h-120l-40 -40l-40 -80l80 -80l280 -240l40 -120l-40 -160l-160 -80l-200 40l-80 -40l-40 270h40l120 -190h120l80 40l40 40v80l-80 80l-280 240l-40 120l40 120l120 80l200 -40z" />
<glyph unicode="T" horiz-adv-x="680" d="M640 840l40 -240h-40l-80 120l-160 40v-680l80 -80h-280l80 80v680l-160 -40l-80 -120h-40l40 240l160 -40h280z" />
<glyph unicode="U" horiz-adv-x="840" d="M720 720v-480l-40 -120l-80 -80l-80 -40h-160l-120 40l-80 80l-40 120v480l-80 80h280l-80 -80v-440l40 -160l120 -80h80l80 40l40 40l40 120v480l-80 80h240z" />
<glyph unicode="V" horiz-adv-x="760" d="M400 200l200 520l-80 80h240l-80 -80l-280 -720l-40 -40l-280 760l-80 80h280l-80 -80z" />
<glyph unicode="W" horiz-adv-x="1040" d="M480 720l120 40l120 -560l160 520l-80 80h240l-80 -80l-240 -720l-40 -40l-160 560l-160 -520l-40 -40l-240 760l-80 80h280l-80 -80l160 -520z" />
<glyph unicode="X" horiz-adv-x="840" d="M440 440l160 280l-80 80h280l-80 -80l-240 -320l240 -320l80 -80h-320l80 80l-120 280h-40l-160 -280l80 -80h-280l80 80l240 320l-240 320l-80 80h320l-80 -80l120 -280h40z" />
<glyph unicode="Y" horiz-adv-x="680" d="M200 720l160 -280h40l120 280l-80 80h240l-80 -80l-200 -360v-280l80 -80h-280l80 80v280l-200 360l-80 80h280z" />
<glyph unicode="Z" horiz-adv-x="760" d="M720 800l-560 -720l360 -40l120 200h40l-40 -280l-80 40h-520v40l480 720h-280l-120 -160h-40l40 240l160 -40h440z" />
<glyph unicode="[" horiz-adv-x="280" d="M40 -160v960h240v-40l-160 -40v-800l160 -40v-40h-240z" />
<glyph unicode="\" horiz-adv-x="320" d="M80 760l200 -840h-80l-200 840h80z" />
<glyph unicode="]" horiz-adv-x="280" d="M240 800v-960h-240v40l160 40v800l-160 40v40h240z" />
<glyph unicode="^" horiz-adv-x="833" d="M200 520h-40l120 160h80l120 -160h-40l-120 80z" />
<glyph unicode="_" horiz-adv-x="800" d="M80 -120v40h640v-40h-640z" />
<glyph unicode="`" horiz-adv-x="840" d="M240 800l160 -160h-40l-200 80v40l40 40h40z" />
<glyph unicode="a" horiz-adv-x="540" d="M100 480l160 80l160 -40l40 -80v-360l80 40v-40l-80 -80h-40l-40 80l-120 -80h-80l-80 40l-80 120l40 120l80 40l200 40v80l-40 40h-80l-40 -80zM340 160v160l-160 -80l-40 -80l80 -120l80 40z" />
<glyph unicode="b" d="M120 120v600l-80 40l200 80v-320l80 40h80l120 -40l80 -160v-160l-80 -160l-120 -40h-80l-80 40l-40 40l-40 -80l-120 80zM440 480l-80 40l-80 -40l-40 -80v-240l40 -80l80 -40l80 40l40 200z" />
<glyph unicode="c" horiz-adv-x="520" d="M360 360v120l-80 40l-80 -40l-40 -160v-80l40 -160l120 -40l80 40l40 80l80 -40l-80 -80l-80 -40h-120l-120 40l-80 160v160l80 160l120 40h80l120 -40l40 -80l-80 -80h-40z" />
<glyph unicode="d" d="M320 760l200 80v-760h40l80 40v-40l-80 -80h-80l-40 80l-40 -40l-80 -40h-80l-120 40l-80 160v160l80 160l120 40h80l80 -40v200zM360 480l-80 40l-80 -40l-40 -200l40 -200l80 -40l80 40l40 80v240z" />
<glyph unicode="e" horiz-adv-x="540" d="M120 520l120 40h80l120 -40l80 -120l-40 -80l-320 -80l40 -160l120 -40l80 40l80 80l40 -40l-80 -80l-80 -40h-120l-120 40l-80 160v160zM360 480l-80 40l-80 -40l-40 -200l200 80v120z" />
<glyph unicode="f" horiz-adv-x="380" d="M220 720v-200h120v-40h-40l-80 -40v-360l80 -80h-280l80 80v360l-40 40v40h40v160l40 80l40 40l80 40l160 -40v-120l-40 -40l-80 40l40 80l-80 40z" />
<glyph unicode="g" horiz-adv-x="600" d="M440 520l120 40l40 -120h-40l-80 40l40 -80v-80l-40 -80l-120 -80l-120 -40l200 -80l120 -120v-80l-80 -120l-120 -40h-80l-160 40l-80 120v80l160 120l-80 40l40 40l80 40l-120 40l-80 120v80l80 120l120 40h80zM360 480l-80 40l-80 -40l-40 -120l40 -120l80 -40l80 40 l40 120zM360 -40l-120 40l-80 -80v-80l80 -80l120 -40l80 80v80z" />
<glyph unicode="h" d="M100 720l-80 40l200 80v-400l40 80l80 40l160 -40l40 -80v-360l80 -80h-280l80 80v360l-40 40h-80l-80 -120v-280l80 -80h-280l80 80v640z" />
<glyph unicode="i" horiz-adv-x="360" d="M120 440l-80 40l200 80v-480l80 -80h-280l80 80v360zM200 640h-40l-80 40v40l40 80h40l80 -40v-40z" />
<glyph unicode="j" horiz-adv-x="321" d="M120 440l-80 40l200 80v-600l-80 -160l-160 -120l-40 40l120 120l40 120v480zM200 640h-40l-80 40v40l40 80h40l80 -40v-40z" />
<glyph unicode="k" horiz-adv-x="560" d="M100 720l-80 40l200 80v-560l160 160l-80 80h240l-200 -200l240 -320l-40 -40l-120 80l-160 200l-40 -40v-120l80 -80h-280l80 80v640z" />
<glyph unicode="l" horiz-adv-x="320" d="M100 720l-80 40l200 80v-760l80 -80h-280l80 80v640z" />
<glyph unicode="m" horiz-adv-x="1040" d="M320 0h-280l80 80v360l-80 40l200 80l-40 -160l120 120l80 40l160 -40l40 -80l80 80l80 40l160 -40l40 -80v-360l80 -80h-280l80 80v360l-40 40h-80l-120 -120v-280l80 -80h-280l80 80v360l-40 40h-80l-120 -120v-280z" />
<glyph unicode="n" horiz-adv-x="680" d="M320 0h-280l80 80v360l-80 40l200 80l-40 -160l120 120l80 40l160 -40l40 -80v-360l80 -80h-280l80 80v360l-40 40h-80l-120 -120v-280z" />
<glyph unicode="o" horiz-adv-x="560" d="M120 520l120 40h80l120 -40l80 -160v-160l-80 -160l-120 -40h-80l-120 40l-80 160v160zM360 480l-80 40l-80 -40l-40 -200l40 -200l80 -40l80 40l40 200z" />
<glyph unicode="p" horiz-adv-x="620" d="M300 520l80 40l120 -40l80 -160v-160l-80 -160l-120 -40h-80l-80 40v-280l80 -80h-280l80 80v680l-80 40l200 80l-40 -160zM420 480h-80l-120 -120v-200l40 -80l80 -40l80 40l40 200z" />
<glyph unicode="q" horiz-adv-x="660" d="M520 560l120 -80l-80 -40v-680l80 -80h-280l80 80v280l-80 -40h-80l-120 40l-80 160v160l80 160l160 40l80 -40l80 -80zM440 400l-80 80h-120l-40 -200l40 -200l80 -40l80 40l40 80v240z" />
<glyph unicode="r" horiz-adv-x="530" d="M30 480l240 80l-40 -160v-40l120 160l80 40l80 -40v-80l-80 -120h-40v120h-40l-80 -80v-280l80 -80h-280l80 80v360z" />
<glyph unicode="s" horiz-adv-x="470" d="M370 560l40 -200h-40l-80 120h-80l-40 -40v-40l240 -160l40 -80l-40 -120l-80 -40h-120l-80 40l-40 -40l-40 200h40l80 -120l80 -40l80 40v80l-240 160l-40 80l40 120l160 40l80 -40z" />
<glyph unicode="t" horiz-adv-x="380" d="M180 680h40v-160h120v-40l-120 -40v-320l40 -40l80 80l40 -40l-80 -80l-80 -40h-40l-80 120v320l-80 40v40l80 40l40 40z" />
<glyph unicode="u" horiz-adv-x="600" d="M600 120v-40l-80 -80h-40l-40 80l-120 -80h-80l-120 40l-40 80v360l-80 40l200 40v-440l40 -40h80l40 40l40 80v280l-80 40l200 40v-480z" />
<glyph unicode="v" horiz-adv-x="600" d="M360 80l-40 -80h-80l-160 440l-80 80h280l-80 -80l120 -320l120 320l-80 80h240l-80 -80z" />
<glyph unicode="w" horiz-adv-x="920" d="M560 0l-120 320l-80 -240l-40 -80h-80l-160 440l-80 80h280l-80 -80l120 -320l120 320l80 40l120 -360l120 320l-80 80h240l-80 -80l-160 -360l-40 -80h-80z" />
<glyph unicode="x" horiz-adv-x="560" d="M320 280l160 -200l80 -80h-240l40 80l-80 120l-80 -120l40 -80h-240l240 240l-160 200l-80 80h240l-40 -80l80 -120l80 120l-40 80h240z" />
<glyph unicode="y" d="M40 -280l240 320l-200 400l-80 80h280l-80 -80l120 -320l160 320l-80 80h240l-80 -80l-400 -760h-80z" />
<glyph unicode="z" horiz-adv-x="560" d="M160 80l240 -40l80 120h40l-40 -160h-440v40l320 440h-160l-80 -120h-40l40 200l40 -40h360z" />
<glyph unicode="{" horiz-adv-x="280" d="M280 -120v-40l-80 40l-120 160v200l-80 80l80 79v201l120 160l80 40v-40l-40 -40l-40 -120v-120l-40 -120l-81 -40l81 -40l40 -120v-120l40 -120z" />
<glyph unicode="|" horiz-adv-x="120" d="M40 -80v840h40v-840h-40z" />
<glyph unicode="}" horiz-adv-x="280" d="M0 -160v40l40 40l40 120v120l40 120l81 40l-81 40l-40 120v120l-40 120l-40 40v40l80 -40l120 -160v-201l80 -79l-80 -80v-200l-120 -160z" />
<glyph unicode="~" horiz-adv-x="600" d="M80 360l40 40l120 -80l80 80h80l120 -80l-40 -40l-120 80l-80 -80h-80z" />
<glyph unicode="&#xa1;" horiz-adv-x="240" d="M80 -320l-40 40v120l40 400h40l80 -400v-120l-40 -40h-80zM120 480h40l40 -80v-40l-80 -40h-40l-40 80v40z" />
<glyph unicode="&#xa2;" horiz-adv-x="520" d="M330 125l30 -165h-40l-29 160h-91l-120 40l-80 160v160l80 160l109 36l-29 164h40l29 -160h51l120 -40l40 -80l-80 -80h-40v120l-80 40l-4 -2l84 -458l40 20l40 80l80 -40l-80 -80zM160 600l-40 -160v-80l40 -160l120 -40l3 1l-83 459z" />
<glyph unicode="&#xa3;" horiz-adv-x="720" d="M120 360v40h160v40l-80 160l80 120l200 80l160 -80l40 -80l-80 -80h-80v120h-120l-40 -80l40 -160v-40h160v-40h-160v-40l-120 -200l-80 -80h320l120 200h40l-40 -280l-80 40h-520v40l160 80l80 200v40h-160z" />
<glyph unicode="&#xa5;" horiz-adv-x="680" d="M560 320v-40h-160v-80h160v-40h-160v-80l80 -80h-280l80 80v80h-160v40h160v80h-160v40h160v40l-200 360l-80 80h280l-80 -80l160 -280h40l120 280l-80 80h240l-80 -80l-200 -360v-40h160z" />
<glyph unicode="&#xa6;" horiz-adv-x="120" d="M40 -80v360h40v-360h-40zM40 400v360h40v-360h-40z" />
<glyph unicode="&#xa7;" horiz-adv-x="560" d="M400 800l40 -200h-40l-80 120h-80l-40 -80v-80l80 -80l160 -80l40 -160l-40 -160l-120 -40l120 -80l40 -120l-80 -120l-160 -40l-80 40l-40 -40l-40 200h40l80 -120h80l40 40l40 120l-79 79l-161 81l-40 160l40 160l120 40l-120 80l-40 120l40 120l160 40l80 -40z M240 400l-40 -80v-160l80 -80h40l40 80v160l-80 80h-40z" />
<glyph unicode="&#xa8;" horiz-adv-x="833" d="M160 760l40 40h80v-80l-40 -40h-40l-40 40v40zM320 760l40 40h80v-80l-40 -40h-40l-40 40v40z" />
<glyph unicode="&#xa9;" horiz-adv-x="833" d="M80 161v679h680v-679h-680zM120 800v-599h600v599h-600zM561 680l40 -120h40l40 80l-40 80l-160 40h-120l-120 -80l-80 -120v-120l80 -120l120 -80h120l120 40l80 80l-80 40l-40 -80l-120 -40l-120 80l-40 120v40l40 120l120 80z" />
<glyph unicode="&#xab;" horiz-adv-x="520" d="M320 40l-280 280l280 280l40 -80l-240 -200l240 -200zM480 80l-240 200v80l240 200l40 -80l-240 -160l240 -160z" />
<glyph unicode="&#xae;" horiz-adv-x="840" d="M161 760l80 -80v-360l-80 -80h280l-80 80v120l80 -40l200 -160l40 40v120l-200 40l120 40l80 120l-80 120l-160 40h-280zM401 720h40l80 -40l40 -80l-40 -80l-80 -40h-80v200zM80 161v679h680v-679h-680zM120 800v-599h600v599h-600z" />
<glyph unicode="&#xb0;" horiz-adv-x="480" d="M80 760l120 120h80l120 -120v-80l-120 -120h-80l-120 120v80zM160 680l80 -80l80 80v80l-80 80l-80 -80v-80z" />
<glyph unicode="&#xb1;" horiz-adv-x="600" d="M0 400v80h240v240h80v-240h240v-80h-240v-240h-80v240h-240zM40 0v80h480v-80h-480z" />
<glyph unicode="&#xb4;" horiz-adv-x="840" d="M240 640h-40l160 160h40l40 -40v-40z" />
<glyph unicode="&#xb6;" horiz-adv-x="520" d="M400 -320v1080h-80v-1080h-40v640h-40l-120 40l-80 160v80l80 160l120 40h200v-1120h-40z" />
<glyph unicode="&#xb8;" horiz-adv-x="833" d="M200 -40l40 80l40 -40l-23 -45l103 -35v-80l-39 -80h-121l-40 80l40 40l40 -80h40l40 81l-120 39v40z" />
<glyph unicode="&#xbb;" horiz-adv-x="520" d="M480 320l-280 -280l-40 80l240 200l-240 200l40 80zM280 280l-240 -200l-40 80l240 160l-240 160l40 80l240 -200v-80z" />
<glyph unicode="&#xbc;" horiz-adv-x="960" d="M160 680l40 80l80 40v-480l80 -80h-280l80 80v280h-80v40zM560 240l120 -40v320zM440 240l200 320l160 40v-400h80v-40h-80v-80l80 -80h-280l80 80v80h-200zM320 -80l160 880h40l-160 -880h-40z" />
<glyph unicode="&#xbd;" horiz-adv-x="999" d="M679 480l-80 -40v-160h-40l-80 80l40 120l120 80h40l120 -40l80 -120v-80l-40 -80l-80 -80l-160 -80l160 -40l120 160h40l-40 -240l-80 40h-320v40l240 240l40 80l-40 80zM160 680l40 80l80 40v-480l80 -80h-280l80 80v280h-80v40zM330 -40l160 880h40l-160 -880h-40z " />
<glyph unicode="&#xbe;" horiz-adv-x="1120" d="M600 240l200 320l160 40v-400h80v-40h-80v-80l80 -80h-280l80 80v80h-200zM440 600l-40 -40l80 -40l40 -80v-40l-40 -80l-120 -80h-80l-120 40l-40 40l-40 80l80 80h40v-120l40 -40l80 -40l40 40l40 80v40l-80 80l-80 -40l40 120l40 -40l80 80l-40 80l-80 40l-40 -40 l-40 -80h-40v120l120 40h40l120 -40l40 -80zM720 240l120 -40v320zM480 -80l160 880h40l-160 -880h-40z" />
<glyph unicode="&#xbf;" horiz-adv-x="520" d="M120 -40h-40l-80 -80v-40l80 -120l120 -40h80l120 40l80 120v80l-80 120l-160 80l-40 40l40 80h-40l-80 -80v-40l200 -120l40 -80v-80l-40 -80l-80 -40l-80 40l-40 80v120zM240 480h40l40 -80v-40l-80 -40h-40l-40 80v40z" />
<glyph unicode="&#xc0;" horiz-adv-x="760" d="M160 80l80 -80h-240l80 80l240 640v40l80 80l280 -760l80 -80h-240l40 80l-57 160h-286zM488 280l-128 360l-129 -360h257zM320 1080l160 -160h-40l-200 80v40l40 40h40z" />
<glyph unicode="&#xc1;" horiz-adv-x="760" d="M160 80l80 -80h-240l80 80l240 640v40l80 80l280 -760l80 -80h-240l40 80l-57 160h-286zM488 280l-128 360l-129 -360h257zM280 920h-40l160 160h40l40 -40v-40z" />
<glyph unicode="&#xc2;" horiz-adv-x="760" d="M160 80l80 -80h-240l80 80l240 640v40l80 80l280 -760l80 -80h-240l40 80l-57 160h-286zM488 280l-128 360l-129 -360h257zM240 920h-40l120 160h80l120 -160h-40l-120 80z" />
<glyph unicode="&#xc3;" horiz-adv-x="760" d="M160 80l80 -80h-240l80 80l240 640v40l80 80l280 -760l80 -80h-240l40 80l-57 160h-286zM488 280l-128 360l-129 -360h257zM160 1000l40 40l80 -80l80 80h80l80 -80l-40 -40l-80 80l-80 -80h-80z" />
<glyph unicode="&#xc4;" horiz-adv-x="760" d="M160 80l80 -80h-240l80 80l240 640v40l80 80l280 -760l80 -80h-240l40 80l-57 160h-286zM488 280l-128 360l-129 -360h257zM240 1000l40 40h80v-80l-40 -40h-40l-40 40v40zM400 1000l40 40h80v-80l-40 -40h-40l-40 40v40z" />
<glyph unicode="&#xc5;" horiz-adv-x="760" d="M240 0l-80 80l57 160h286l57 -160l-40 -80h240l-80 80l-280 760l-80 -80v-40l-240 -640l-80 -80h240zM360 640l128 -360h-257zM280 1040l80 80h40l80 -80v-40l-80 -80h-40l-80 80v40zM320 1000l40 -40h40l40 40v40l-40 40h-40l-40 -40v-40z" />
<glyph unicode="&#xc6;" horiz-adv-x="1080" d="M1000 240h40l-40 -280l-80 40h-520l80 80v160h-250l-70 -160l80 -80h-240l80 80l320 720h400l160 40l40 -240h-40l-120 160h-200l-40 -40v-240l40 -40h160l80 80v-200l-80 80h-160l-40 -40v-280l40 -40h240zM480 680l-40 40l-193 -440h233v400z" />
<glyph unicode="&#xc7;" horiz-adv-x="760" d="M200 560v-320l80 -120l160 -80l120 40l80 80l40 80l40 -40l-80 -120l-120 -80h-79l-23 -45l103 -35v-80l-39 -80h-121l-40 80l40 40l40 -80h40l40 81l-120 39v40l20 40h-61l-160 80l-80 120l-40 200l40 200l80 120l160 80h200l160 -80l40 -80l-80 -80h-80v120l-80 80h-80 l-120 -80z" />
<glyph unicode="&#xc8;" horiz-adv-x="720" d="M640 240h40l-40 -280l-80 40h-520l80 80v640l-80 80h400l160 40l40 -240h-40l-120 160h-200l-40 -40v-240l40 -40h160l80 80v-200l-80 80h-160l-40 -40v-280l40 -40h240zM240 1080l160 -160h-40l-200 80v40l40 40h40z" />
<glyph unicode="&#xc9;" horiz-adv-x="720" d="M640 240h40l-40 -280l-80 40h-520l80 80v640l-80 80h400l160 40l40 -240h-40l-120 160h-200l-40 -40v-240l40 -40h160l80 80v-200l-80 80h-160l-40 -40v-280l40 -40h240zM240 920h-40l160 160h40l40 -40v-40z" />
<glyph unicode="&#xca;" horiz-adv-x="720" d="M640 240h40l-40 -280l-80 40h-520l80 80v640l-80 80h400l160 40l40 -240h-40l-120 160h-200l-40 -40v-240l40 -40h160l80 80v-200l-80 80h-160l-40 -40v-280l40 -40h240zM200 920h-40l120 160h80l120 -160h-40l-120 80z" />
<glyph unicode="&#xcb;" horiz-adv-x="720" d="M640 240h40l-40 -280l-80 40h-520l80 80v640l-80 80h400l160 40l40 -240h-40l-120 160h-200l-40 -40v-240l40 -40h160l80 80v-200l-80 80h-160l-40 -40v-280l40 -40h240zM160 1000l40 40h80v-80l-40 -40h-40l-40 40v40zM320 1000l40 40h80v-80l-40 -40h-40l-40 40v40z " />
<glyph unicode="&#xcc;" horiz-adv-x="360" d="M240 720v-640l80 -80h-280l80 80v640l-80 80h280zM120 1080l160 -160h-40l-200 80v40l40 40h40z" />
<glyph unicode="&#xcd;" horiz-adv-x="360" d="M240 720v-640l80 -80h-280l80 80v640l-80 80h280zM120 920h-40l160 160h40l40 -40v-40z" />
<glyph unicode="&#xce;" horiz-adv-x="360" d="M80 920h-40l120 160h40l120 -160h-40l-81 40h-39zM240 720v-640l80 -80h-280l80 80v640l-80 80h280z" />
<glyph unicode="&#xcf;" horiz-adv-x="360" d="M240 720v-640l80 -80h-280l80 80v640l-80 80h280zM40 1001l40 40h80v-80l-40 -40h-40l-40 40v40zM200 1001l40 40h80v-80l-40 -40h-40l-40 40v40z" />
<glyph unicode="&#xd1;" horiz-adv-x="840" d="M720 720v-680l-80 -80l-440 720v-600l80 -80h-240l80 80v640l-80 80h240l360 -600v520l-80 80h240zM240 1000l40 40l80 -80l80 80h80l80 -80l-40 -40l-80 80l-80 -80h-80z" />
<glyph unicode="&#xd2;" horiz-adv-x="960" d="M840 200l-80 -120l-160 -80h-240l-160 80l-80 120l-40 200l40 200l80 120l160 80h240l160 -80l80 -120l40 -200zM720 240v320l-80 120l-120 80h-80l-120 -80l-80 -120v-320l80 -120l120 -80h80l120 80zM360 1080l160 -160h-40l-200 80v40l40 40h40z" />
<glyph unicode="&#xd3;" horiz-adv-x="960" d="M840 200l-80 -120l-160 -80h-240l-160 80l-80 120l-40 200l40 200l80 120l160 80h240l160 -80l80 -120l40 -200zM720 240v320l-80 120l-120 80h-80l-120 -80l-80 -120v-320l80 -120l120 -80h80l120 80zM440 920h-40l160 160h40l40 -40v-40z" />
<glyph unicode="&#xd4;" horiz-adv-x="960" d="M840 200l-80 -120l-160 -80h-240l-160 80l-80 120l-40 200l40 200l80 120l160 80h240l160 -80l80 -120l40 -200zM720 240v320l-80 120l-120 80h-80l-120 -80l-80 -120v-320l80 -120l120 -80h80l120 80zM359 920h-40l120 160h80l120 -160h-40l-120 80z" />
<glyph unicode="&#xd5;" horiz-adv-x="960" d="M840 200l-80 -120l-160 -80h-240l-160 80l-80 120l-40 200l40 200l80 120l160 80h240l160 -80l80 -120l40 -200zM720 240v320l-80 120l-120 80h-80l-120 -80l-80 -120v-320l80 -120l120 -80h80l120 80zM280 1000l40 40l80 -80l80 80h80l80 -80l-40 -40l-80 80l-80 -80 h-80z" />
<glyph unicode="&#xd6;" horiz-adv-x="960" d="M840 200l-80 -120l-160 -80h-240l-160 80l-80 120l-40 200l40 200l80 120l160 80h240l160 -80l80 -120l40 -200zM720 240v320l-80 120l-120 80h-80l-120 -80l-80 -120v-320l80 -120l120 -80h80l120 80zM320 1000l40 40h80v-80l-40 -40h-40l-40 40v40zM480 1000l40 40h80 v-80l-40 -40h-40l-40 40v40z" />
<glyph unicode="&#xd7;" horiz-adv-x="641" d="M161 80l-80 80l200 160l-201 160l81 80l160 -200l160 200l80 -80l-200 -160l200 -160l-80 -80l-160 200z" />
<glyph unicode="&#xd8;" horiz-adv-x="960" d="M360 -80l200 960h40l-200 -960h-40zM840 200l-80 -120l-160 -80h-240l-160 80l-80 120l-40 200l40 200l80 120l160 80h240l160 -80l80 -120l40 -200zM720 240v320l-80 120l-120 80h-80l-120 -80l-80 -120v-320l80 -120l120 -80h80l120 80z" />
<glyph unicode="&#xd9;" horiz-adv-x="840" d="M720 720v-480l-40 -120l-80 -80l-80 -40h-160l-120 40l-80 80l-40 120v480l-80 80h280l-80 -80v-440l40 -160l120 -80h80l80 40l40 40l40 120v480l-80 80h240zM320 1080l160 -160h-40l-200 80v40l40 40h40z" />
<glyph unicode="&#xda;" horiz-adv-x="840" d="M720 720v-480l-40 -120l-80 -80l-80 -40h-160l-120 40l-80 80l-40 120v480l-80 80h280l-80 -80v-440l40 -160l120 -80h80l80 40l40 40l40 120v480l-80 80h240zM400 920h-40l160 160h40l40 -40v-40z" />
<glyph unicode="&#xdb;" horiz-adv-x="840" d="M720 720v-480l-40 -120l-80 -80l-80 -40h-160l-120 40l-80 80l-40 120v480l-80 80h280l-80 -80v-440l40 -160l120 -80h80l80 40l40 40l40 120v480l-80 80h240zM320 920h-40l120 160h80l120 -160h-40l-120 80z" />
<glyph unicode="&#xdc;" horiz-adv-x="840" d="M720 720v-480l-40 -120l-80 -80l-80 -40h-160l-120 40l-80 80l-40 120v480l-80 80h280l-80 -80v-440l40 -160l120 -80h80l80 40l40 40l40 120v480l-80 80h240zM280 1000l40 40h80v-80l-40 -40h-40l-40 40v40zM440 1000l40 40h80v-80l-40 -40h-40l-40 40v40z" />
<glyph unicode="&#xdd;" horiz-adv-x="680" d="M200 720l160 -280h40l120 280l-80 80h240l-80 -80l-200 -360v-280l80 -80h-280l80 80v280l-200 360l-80 80h280zM280 920h-40l160 160h40l40 -40v-40z" />
<glyph unicode="&#xe0;" horiz-adv-x="600" d="M240 800l160 -160h-40l-200 80v40l40 40h40zM120 480l160 80l160 -40l40 -80v-360l80 40v-40l-80 -80h-40l-40 80l-120 -80h-80l-80 40l-80 120l40 120l80 40l200 40v80l-40 40h-80l-40 -80zM360 160v160l-160 -80l-40 -80l80 -120l80 40z" />
<glyph unicode="&#xe1;" horiz-adv-x="600" d="M240 640h-40l160 160h40l40 -40v-40zM120 480l160 80l160 -40l40 -80v-360l80 40v-40l-80 -80h-40l-40 80l-120 -80h-80l-80 40l-80 120l40 120l80 40l200 40v80l-40 40h-80l-40 -80zM360 160v160l-160 -80l-40 -80l80 -120l80 40z" />
<glyph unicode="&#xe2;" horiz-adv-x="600" d="M120 480l160 80l160 -40l40 -80v-360l80 40v-40l-80 -80h-40l-40 80l-120 -80h-80l-80 40l-80 120l40 120l80 40l200 40v80l-40 40h-80l-40 -80zM360 160v160l-160 -80l-40 -80l80 -120l80 40zM200 640h-40l120 160h80l120 -160h-40l-120 80z" />
<glyph unicode="&#xe3;" horiz-adv-x="600" d="M120 480l160 80l160 -40l40 -80v-360l80 40v-40l-80 -80h-40l-40 80l-120 -80h-80l-80 40l-80 120l40 120l80 40l200 40v80l-40 40h-80l-40 -80zM360 160v160l-160 -80l-40 -80l80 -120l80 40zM120 760l40 40l80 -80l80 80h80l80 -80l-40 -40l-80 80l-80 -80h-80z" />
<glyph unicode="&#xe4;" horiz-adv-x="600" d="M120 480l160 80l160 -40l40 -80v-360l80 40v-40l-80 -80h-40l-40 80l-120 -80h-80l-80 40l-80 120l40 120l80 40l200 40v80l-40 40h-80l-40 -80zM360 160v160l-160 -80l-40 -80l80 -120l80 40zM160 760l40 40h80v-80l-40 -40h-40l-40 40v40zM320 760l40 40h80v-80 l-40 -40h-40l-40 40v40z" />
<glyph unicode="&#xe5;" horiz-adv-x="600" d="M280 560l-160 -80l80 -80l40 80h80l40 -40v-80l-200 -40l-80 -40l-40 -120l80 -120l80 -40h80l120 80l40 -80h40l80 80v40l-80 -40v360l-40 80zM360 320v-160l-40 -80l-80 -40l-80 120l40 80zM200 720l80 80h40l80 -80v-40l-80 -80h-40l-80 80v40zM240 680l40 -40h40 l40 40v40l-40 40h-40l-40 -40v-40z" />
<glyph unicode="&#xe6;" horiz-adv-x="840" d="M440 440l40 80l80 40h80l120 -40l80 -120l-40 -80l-320 -40l40 -160l80 -80l80 40l40 80l80 -80l-40 -40l-120 -40h-80l-80 40l-40 80l-40 -80l-80 -40h-120l-80 40l-80 120l40 120l80 40h240l-40 120l-80 80l-80 -40l-40 -80l-80 80l40 40l120 40h80l80 -40zM360 120 l40 160l-200 -40l-40 -80l40 -80h80zM680 480l-80 40l-80 -80l-40 -120l200 40v120z" />
<glyph unicode="&#xe7;" horiz-adv-x="520" d="M200 -40l23 45l-103 35l-80 160v160l80 160l120 40h80l120 -40l40 -80l-80 -80h-40v120l-80 40l-80 -40l-40 -160v-80l40 -160l120 -40l80 40l40 80l80 -40l-80 -80l-80 -40h-80l-23 -45l103 -35v-80l-39 -80h-121l-40 80l40 40l40 -80h40l40 81l-120 39v40z" />
<glyph unicode="&#xe8;" horiz-adv-x="560" d="M240 800l160 -160h-40l-200 80v40l40 40h40zM120 520l120 40h80l120 -40l80 -120l-40 -80l-320 -80l40 -160l120 -40l80 40l80 80l40 -40l-80 -80l-80 -40h-120l-120 40l-80 160v160zM360 480l-80 40l-80 -40l-40 -200l200 80v120z" />
<glyph unicode="&#xe9;" horiz-adv-x="520" d="M280 640h-40l160 160h40l40 -40v-40zM120 520l120 40h80l120 -40l80 -120l-40 -80l-320 -80l40 -160l120 -40l80 40l80 80l40 -40l-80 -80l-80 -40h-120l-120 40l-80 160v160zM360 480l-80 40l-80 -40l-40 -200l200 80v120z" />
<glyph unicode="&#xea;" horiz-adv-x="520" d="M120 520l120 40h80l120 -40l80 -120l-40 -80l-320 -80l40 -160l120 -40l80 40l80 80l40 -40l-80 -80l-80 -40h-120l-120 40l-80 160v160zM360 480l-80 40l-80 -40l-40 -200l200 80v120zM160 640h-40l120 160h80l120 -160h-40l-120 80z" />
<glyph unicode="&#xeb;" horiz-adv-x="520" d="M120 520l120 40h80l120 -40l80 -120l-40 -80l-320 -80l40 -160l120 -40l80 40l80 80l40 -40l-80 -80l-80 -40h-120l-120 40l-80 160v160zM360 480l-80 40l-80 -40l-40 -200l200 80v120zM120 760l40 40h80v-80l-40 -40h-40l-40 40v40zM280 760l40 40h80v-80l-40 -40h-40 l-40 40v40z" />
<glyph unicode="&#xec;" horiz-adv-x="360" d="M120 440l-80 40l200 80v-480l80 -80h-280l80 80v360zM120 800l160 -160h-40l-200 80v40l40 40h40z" />
<glyph unicode="&#xed;" horiz-adv-x="360" d="M120 440l-80 40l200 80v-480l80 -80h-280l80 80v360zM79 640h-40l160 160h40l40 -40v-40z" />
<glyph unicode="&#xee;" horiz-adv-x="360" d="M120 440l-80 40l200 80v-480l80 -80h-280l80 80v360zM40 640h-40l120 160h80l120 -160h-40l-120 80z" />
<glyph unicode="&#xef;" horiz-adv-x="360" d="M120 440l-80 40l200 80v-480l80 -80h-280l80 80v360zM40 760l40 40h80v-80l-40 -40h-40l-40 40v40zM200 760l40 40h80v-80l-40 -40h-40l-40 40v40z" />
<glyph unicode="&#xf1;" horiz-adv-x="680" d="M320 0h-280l80 80v360l-80 40l200 80l-40 -160l120 120l80 40l160 -40l40 -80v-360l80 -80h-280l80 80v360l-40 40h-80l-120 -120v-280zM160 760l40 40l80 -80l80 80h80l80 -80l-40 -40l-80 80l-80 -80h-80z" />
<glyph unicode="&#xf2;" horiz-adv-x="840" d="M240 800l160 -160h-40l-200 80v40l40 40h40zM120 520l120 40h80l120 -40l80 -160v-160l-80 -160l-120 -40h-80l-120 40l-80 160v160zM360 480l-80 40l-80 -40l-40 -200l40 -200l80 -40l80 40l40 200z" />
<glyph unicode="&#xf3;" horiz-adv-x="560" d="M120 520l120 40h80l120 -40l80 -160v-160l-80 -160l-120 -40h-80l-120 40l-80 160v160zM360 480l-80 40l-80 -40l-40 -200l40 -200l80 -40l80 40l40 200zM240 640h-40l160 160h40l40 -40v-40z" />
<glyph unicode="&#xf4;" horiz-adv-x="560" d="M160 640h-40l120 160h80l120 -160h-40l-120 80zM120 520l120 40h80l120 -40l80 -160v-160l-80 -160l-120 -40h-80l-120 40l-80 160v160zM360 480l-80 40l-80 -40l-40 -200l40 -200l80 -40l80 40l40 200z" />
<glyph unicode="&#xf5;" horiz-adv-x="560" d="M120 520l120 40h80l120 -40l80 -160v-160l-80 -160l-120 -40h-80l-120 40l-80 160v160zM360 480l-80 40l-80 -40l-40 -200l40 -200l80 -40l80 40l40 200zM80 760l40 40l80 -80l80 80h80l80 -80l-40 -40l-80 80l-80 -80h-80z" />
<glyph unicode="&#xf6;" horiz-adv-x="560" d="M120 520l120 40h80l120 -40l80 -160v-160l-80 -160l-120 -40h-80l-120 40l-80 160v160zM360 480l-80 40l-80 -40l-40 -200l40 -200l80 -40l80 40l40 200zM140 760l40 40h80v-80l-40 -40h-40l-40 40v40zM300 760l40 40h80v-80l-40 -40h-40l-40 40v40z" />
<glyph unicode="&#xf7;" horiz-adv-x="480" d="M80 280v40h360v-40h-360zM200 480l40 40h40l40 -40v-40l-40 -40h-40l-40 40v40zM320 120l-40 -40h-40l-40 40v40l40 40h40l40 -40v-40z" />
<glyph unicode="&#xf8;" horiz-adv-x="560" d="M120 -80l280 720h40l-280 -720h-40zM120 520l120 40h80l120 -40l80 -160v-160l-80 -160l-120 -40h-80l-120 40l-80 160v160zM360 480l-80 40l-80 -40l-40 -200l40 -200l80 -40l80 40l40 200z" />
<glyph unicode="&#xf9;" d="M600 120v-40l-80 -80h-40l-40 80l-120 -80h-80l-120 40l-40 80v360l-80 40l200 40v-440l40 -40h80l40 40l40 80v280l-80 40l200 40v-480zM280 800l160 -160h-40l-200 80v40l40 40h40z" />
<glyph unicode="&#xfa;" d="M600 120v-40l-80 -80h-40l-40 80l-120 -80h-80l-120 40l-40 80v360l-80 40l200 40v-440l40 -40h80l40 40l40 80v280l-80 40l200 40v-480zM240 640h-40l160 160h40l40 -40v-40z" />
<glyph unicode="&#xfb;" d="M600 120v-40l-80 -80h-40l-40 80l-120 -80h-80l-120 40l-40 80v360l-80 40l200 40v-440l40 -40h80l40 40l40 80v280l-80 40l200 40v-480zM160 640h-40l120 160h80l120 -160h-40l-120 80z" />
<glyph unicode="&#xfc;" d="M600 120v-40l-80 -80h-40l-40 80l-120 -80h-80l-120 40l-40 80v360l-80 40l200 40v-440l40 -40h80l40 40l40 80v280l-80 40l200 40v-480zM120 760l40 40h80v-80l-40 -40h-40l-40 40v40zM280 760l40 40h80v-80l-40 -40h-40l-40 40v40z" />
<glyph unicode="&#xfd;" d="M40 -280l240 320l-200 400l-80 80h280l-80 -80l120 -320l160 320l-80 80h240l-80 -80l-400 -760h-80zM280 640h-40l160 160h40l40 -40v-40z" />
<glyph unicode="&#xff;" d="M40 -280l240 320l-200 400l-80 80h280l-80 -80l120 -320l160 320l-80 80h240l-80 -80l-400 -760h-80zM200 760l40 40h80v-80l-40 -40h-40l-40 40v40zM360 760l40 40h80v-80l-40 -40h-40l-40 40v40z" />
<glyph unicode="&#x131;" horiz-adv-x="360" d="M120 440l-80 40l200 80v-480l80 -80h-280l80 80v360z" />
<glyph unicode="&#x152;" horiz-adv-x="1120" d="M1040 240h40l-40 -280l-80 40h-600l-160 80l-80 120l-40 200l40 200l80 120l160 80h480l160 40l40 -240h-40l-120 160h-200l-40 -40v-240l40 -40h160l80 80v-200l-80 80h-160l-40 -40v-280l40 -40h240zM440 40h80v720h-80l-120 -80l-80 -120v-320l80 -120z" />
<glyph unicode="&#x153;" horiz-adv-x="880" d="M480 520l120 40h80l120 -40l80 -120l-40 -80l-320 -80l40 -160l120 -40l80 40l80 80l40 -40l-80 -80l-80 -40h-120l-120 40v160l-40 -160l-120 -40h-80l-120 40l-80 160v160l80 160l120 40h80l120 -40v-160zM360 480l-80 40l-80 -40l-40 -200l40 -200l80 -40l80 40 l40 200zM720 480l-80 40l-80 -40l-40 -200l200 80v120z" />
<glyph unicode="&#x160;" horiz-adv-x="600" d="M480 840l40 -240h-40l-120 160h-120l-40 -40l-40 -80l80 -80l280 -240l40 -120l-40 -160l-160 -80l-200 40l-80 -40l-40 270h40l120 -190h120l80 40l40 40v80l-80 80l-280 240l-40 120l40 120l120 80l200 -40zM120 1081h40l120 -80l120 80h40l-120 -160h-80z" />
<glyph unicode="&#x161;" horiz-adv-x="480" d="M360 560l40 -200h-40l-80 120h-80l-40 -40v-40l240 -160l40 -80l-40 -120l-80 -40h-120l-80 40l-40 -40l-40 200h40l80 -120l80 -40l80 40v80l-240 160l-40 80l40 120l160 40l80 -40zM80 800h40l120 -80l120 80h40l-120 -160h-80z" />
<glyph unicode="&#x178;" horiz-adv-x="680" d="M200 720l160 -280h40l120 280l-80 80h240l-80 -80l-200 -360v-280l80 -80h-280l80 80v280l-200 360l-80 80h280zM200 1000l40 40h80v-80l-40 -40h-40l-40 40v40zM360 1000l40 40h80v-80l-40 -40h-40l-40 40v40z" />
<glyph unicode="&#x17d;" horiz-adv-x="760" d="M720 800l-560 -720l360 -40l120 200h40l-40 -280l-80 40h-520v40l480 720h-280l-120 -160h-40l40 240l160 -40h440zM240 1080h40l120 -80l120 80h40l-120 -160h-80z" />
<glyph unicode="&#x17e;" horiz-adv-x="560" d="M160 80l240 -40l80 120h40l-40 -160h-440v40l320 440h-160l-80 -120h-40l40 200l40 -40h360zM160 800h40l120 -80l120 80h40l-120 -160h-80z" />
<glyph unicode="&#x243;" horiz-adv-x="760" d="M120 720l-80 80h360l200 -40l80 -160l-80 -120l-80 -40l120 -40l80 -160l-80 -160l-160 -80h-440l80 80v640zM400 760h-120l-40 -40v-280h80l160 40l40 120l-40 120zM320 400h-80v-320l40 -40h120l120 80l40 120l-80 120zM20 200v40h320v-40h-320z" />
<glyph unicode="&#x2c6;" horiz-adv-x="833" d="M200 640h-40l120 160h80l120 -160h-40l-120 80z" />
<glyph unicode="&#x2c7;" horiz-adv-x="833" d="M160 800h40l120 -80l120 80h40l-120 -160h-80z" />
<glyph unicode="&#x2d8;" horiz-adv-x="840" d="M400 720h40l-40 -80l-80 -40h-40l-80 40l-40 80h40l80 -80h40z" />
<glyph unicode="&#x2d9;" horiz-adv-x="833" d="M400 640h-40l-80 40v40l40 80h40l80 -40v-40z" />
<glyph unicode="&#x2da;" horiz-adv-x="840" d="M200 720l80 80h40l80 -80v-40l-80 -80h-40l-80 80v40zM240 680l40 -40h40l40 40v40l-40 40h-40l-40 -40v-40z" />
<glyph unicode="&#x2dc;" horiz-adv-x="833" d="M200 640l40 40l80 -80l80 80h80l80 -80l-40 -40l-80 80l-80 -80h-80z" />
<glyph unicode="&#x2013;" horiz-adv-x="480" d="M80 280v40h320v-40h-320z" />
<glyph unicode="&#x2014;" horiz-adv-x="800" d="M80 280v40h640v-40h-640z" />
<glyph unicode="&#x2018;" horiz-adv-x="200" d="M40 800l40 -40l80 -120v-40l-40 -40h-40l-40 40v200z" />
<glyph unicode="&#x2019;" horiz-adv-x="200" d="M80 600l-40 -40v200l40 40h40l40 -40v-40z" />
<glyph unicode="&#x201a;" horiz-adv-x="200" d="M80 -120l-40 -40v200l40 40h40l40 -40v-40z" />
<glyph unicode="&#x201c;" horiz-adv-x="360" d="M40 800l40 -40l80 -120v-40l-40 -40h-40l-40 40v200zM200 800l40 -40l80 -120v-40l-40 -40h-40l-40 40v200z" />
<glyph unicode="&#x201d;" horiz-adv-x="360" d="M80 600l-40 -40v200l40 40h40l40 -40v-40zM240 600l-40 -40v200l40 40h40l40 -40v-40z" />
<glyph unicode="&#x201e;" horiz-adv-x="360" d="M80 -120l-40 -40v200l40 40h40l40 -40v-40zM240 -120l-40 -40v200l40 40h40l40 -40v-40z" />
<glyph unicode="&#x2020;" horiz-adv-x="440" d="M0 520v40l40 40l160 -40l-40 240l40 40h40l40 -40l-40 -240l160 40l40 -40v-40l-40 -40l-160 40l40 -480l-40 -40h-40l-40 40l40 480l-160 -40z" />
<glyph unicode="&#x2021;" horiz-adv-x="440" d="M440 320v-40l-40 -40l-160 40l40 -240l-40 -40h-40l-40 40l40 240l-160 -40l-40 40v40l40 40l160 -40v200l-160 -40l-40 40v40l40 40l160 -40l-40 240l40 40h40l40 -40l-40 -240l160 40l40 -40v-40l-40 -40l-160 40v-200l160 40z" />
<glyph unicode="&#x2022;" horiz-adv-x="440" d="M280 160h-80l-120 80v80l80 120h80l120 -80v-80z" />
<glyph unicode="&#x2026;" d="M120 0h-40l-80 40v40l40 80h40l80 -40v-40zM360 0h-40l-80 40v40l40 80h40l80 -40v-40zM600 0h-40l-80 40v40l40 80h40l80 -40v-40z" />
<glyph unicode="&#x2030;" horiz-adv-x="1320" d="M160 799l120 41h80l40 -41l79 -120l-79 -199l-120 -40h-80l-40 40l-80 119zM680 0l-120 41l-80 199l80 120l40 40h80l120 -40l79 -200l-79 -119l-40 -41h-80zM1080 0l-120 41l-80 199l80 120l40 40h80l120 -40l79 -200l-79 -119l-40 -41h-80zM200 0l440 800h80l-440 -800 h-80zM320 759l-40 40l-40 -40l-40 -159l40 -80l40 -40l40 40l40 160zM1080 41l40 40l40 79l-40 160l-40 40l-40 -40l-40 -80l40 -159zM680 41l40 40l40 79l-40 160l-40 40l-40 -40l-40 -80l40 -159zM480 679h-1l1 1v-1zM1280 160h-1l1 1v-1zM880 160h-1l1 1v-1z" />
<glyph unicode="&#x2044;" horiz-adv-x="280" d="M40 -40l160 880h40l-160 -880h-40z" />
<glyph unicode="&#x20ac;" horiz-adv-x="680" d="M520 480v-40h-320v-80h240v-40h-240v-80l80 -120l120 -80l120 40l40 80l80 -40l-160 -120h-160l-160 80l-80 120l-24 120h-56v40h48l-8 40l8 40h-48v40h56l24 120l80 120l160 80h120l160 -80l40 -80l-80 -80h-80v120l-80 80h-80l-80 -80l-40 -120v-80h320z" />
<glyph unicode="&#x2116;" horiz-adv-x="1240" d="M880 719l120 41h80l40 -41l79 -120l-79 -199l-120 -40h-80l-40 40l-80 119zM1040 679l-40 40l-40 -40l-40 -159l40 -80l40 -40l40 40l40 160zM1200 599h-1l1 1v-1zM720 720v-680l-80 -80l-440 720v-600l80 -80h-240l80 80v640l-80 80h240l360 -600v520l-80 80h240z M840 240v40h320v-40h-320z" />
<glyph unicode="&#x2193;" d="M320 -80l-240 320h80v120h320v-120h80zM160 400v40h320v-40h-320zM160 640v40h320v-40h-320zM160 560v40h320v-40h-320zM160 480v40h320v-40h-320z" />
<glyph unicode="&#x2212;" horiz-adv-x="560" d="M40 280v80h480v-80h-480z" />
<glyph unicode="&#x2248;" horiz-adv-x="833" d="M200 480l40 40l120 -80l80 80h80l120 -120l-40 -40l-120 80l-80 -80h-80zM200 280l40 40l120 -80l80 80h80l120 -120l-40 -40l-120 80l-80 -80h-80z" />
<glyph unicode="&#x2260;" horiz-adv-x="520" d="M80 80l240 480h80l-240 -480h-80zM480 440v-80h-480v80h480zM480 280v-80h-480v80h480z" />
<glyph unicode="&#x2264;" horiz-adv-x="520" d="M440 120l-360 240v79l360 241l40 -80l-360 -200l360 -200zM40 0v80h480v-80h-480z" />
<glyph unicode="&#x2265;" horiz-adv-x="520" d="M440 360l-360 -240l-40 80l360 200l-360 200l40 80l360 -241v-79zM0 0v80h480v-80h-480z" />
<glyph unicode="&#x25ca;" horiz-adv-x="560" d="M40 360v80l200 360h80l200 -360v-80l-200 -360h-80zM120 400l160 -360l160 360l-160 360z" />
<glyph unicode="&#x25fc;" horiz-adv-x="520" d="M0 520h520v-520h-520v520z" />
<glyph unicode="&#x1f441;" horiz-adv-x="880" d="M640 600l120 -120l80 -160v-80l-80 -160l-120 -120l-200 -40l-200 40l-120 120l-80 160v80l80 160l120 120l200 40zM480 80h120l160 120l40 80l-40 80l-160 120h-120l80 -40l80 -120v-80l-80 -120zM400 480h-120l-160 -120l-40 -80l40 -80l160 -120h120l-80 40l-80 120 v80l80 120z" />
<glyph unicode="&#x1f5a8;" horiz-adv-x="1080" d="M120 -80l78 80h-118v360l200 160h133l27 160h320l-27 -160h267v-360l-200 -160h-281l-79 -80h-320zM120 320v-280h118l42 80v40h320v-40l-41 -80h201v280h-640z" />
<glyph horiz-adv-x="880" d="M240 720v-200h120v-40h-40l-80 -40v-360l80 -80h-280l80 80v360l-40 40v40h40v160l40 80l40 40l80 40l160 -40l120 40v-560l160 160l-80 80h240l-200 -200l240 -320l-40 -40l-120 80l-160 200l-40 -40v-120l80 -80h-280l80 80v600l-40 -40l-80 40l40 80l-80 40z" />
<glyph horiz-adv-x="1120" d="M560 760h-160v-680l80 -80h-280l80 80v680l-160 -40l-80 -120h-40l40 240l160 -40h280l160 40l80 -40v-360l40 80l80 40l160 -40l40 -80v-360l80 -80h-280l80 80v360l-40 40h-80l-80 -120v-280l80 -80h-280l80 80v639z" />
<glyph horiz-adv-x="960" d="M240 720v-200h120v-40h-40l-80 -40v-360l80 -80h-280l80 80v360l-40 40v40h40v160l40 80l40 40l80 40l160 -40l120 40v-320l80 40h80l120 -40l80 -160v-160l-80 -160l-120 -40h-80l-80 40l-40 40l-40 -80l-120 80l80 40v560l-40 -40l-80 40l40 80l-80 40zM760 480l-80 40 l-80 -40l-40 -80v-240l40 -80l80 -40l80 40l40 200z" />
<glyph horiz-adv-x="960" d="M240 720v-200h120v-40h-40l-80 -40v-360l80 -80h-280l80 80v360l-40 40v40h40v160l40 80l40 40l80 40l160 -40l120 40v-400l40 80l80 40l160 -40l40 -80v-360l80 -80h-280l80 80v360l-40 40h-80l-80 -120v-280l80 -80h-280l80 80v600l-40 -40l-80 40l40 80l-80 40z" />
<glyph horiz-adv-x="641" d="M240 720v-200h320v-560l-80 -120l-160 -120l-40 40l120 120l40 80v480l-80 40h-40l-80 -40v-360l80 -80h-280l80 80v360l-40 40v40h40v160l40 80l40 40l120 40l200 -40l40 -80l-40 -80l-120 40l40 80l-120 40z" />
<glyph horiz-adv-x="961" d="M520 560l120 -80l-80 -40v-680l40 -40l120 120l40 120v480l-80 40l200 80v-600l-80 -160l-160 -120h-280l80 80v280l-80 -40h-80l-120 40l-80 160v160l80 160l160 40l80 -40l80 -80zM440 400l-80 80h-120l-40 -200l40 -200l80 -40l80 40l40 80v240zM840 640h-40l-80 40 v40l40 80h40l80 -40v-40z" />
<glyph horiz-adv-x="1558" d="M1198 0h-280l80 80v282l-38 38h-160v-680l80 -80h-280l80 80v680h-125l-155 -400l-40 -40l-280 760l-80 80h280l-80 -80l200 -520l200 520l-80 80h240l-80 -80l-109 -280h389l38 19v261l-80 80h400l160 40l40 -240h-40l-120 160h-200l-40 -40v-240l40 -40h160l80 80v-200 l-80 80h-160l-40 -40v-280z" />
</font>
</defs>
</svg>
